<svg width="65" height="64" viewBox="0 0 65 64" fill="none" xmlns="http://www.w3.org/2000/svg">
<rect x="0.164062" y="0.00390625" width="64" height="64" fill="#FF6700"/>
<path d="M20.389 28.1434C19.0035 25.5162 15.9409 20.7785 11.8616 20.8285C6.22177 20.8952 12.7866 33.6373 12.7866 33.6373C12.7866 33.6373 7.46348 44.0731 12.1053 45.1753C16.7472 46.2774 20.664 39.7376 20.664 39.7376" fill="#FF6700"/>
<path d="M42.9155 50.1493C45.1757 47.9267 45.8785 44.9762 44.4852 43.5594C43.0919 42.1425 40.1301 42.7958 37.8699 45.0185C35.6096 47.2411 34.9068 50.1916 36.3001 51.6084C37.6935 53.0252 40.6552 52.372 42.9155 50.1493Z" fill="black"/>
<path d="M42.9155 50.1493C45.1757 47.9267 45.8785 44.9762 44.4852 43.5594C43.0919 42.1425 40.1301 42.7958 37.8699 45.0185C35.6096 47.2411 34.9068 50.1916 36.3001 51.6084C37.6935 53.0252 40.6552 52.372 42.9155 50.1493Z" fill="black" fill-opacity="0.2"/>
<path d="M45.2534 21.7886C45.2534 21.7886 41.472 14.5258 33.1508 11.2757C29.1486 9.71314 27.5235 12.1507 29.8299 15.2175C32.7696 19.1239 21.6275 11.4319 28.7798 24.1449L45.2555 21.7886H45.2534Z" fill="#FF6700"/>
<path d="M38.9301 18.8915L42.5031 17.831L36.3966 12.8537L30.7589 10.7891L28.8359 12.1245C28.8359 12.1245 36.9925 14.8413 38.9301 18.8915Z" fill="#FECB8B"/>
<path d="M44.2547 21.2761C44.0776 21.5303 44.0797 22.0012 44.238 22.2324L44.2359 22.2241L44.2234 22.1928C43.7047 20.8282 42.8755 19.5969 41.9483 18.4719C39.8545 16.0218 37.2044 14.0425 34.2814 12.7071C33.2084 12.2779 31.9042 11.6612 30.7875 11.7633C29.5 11.8299 29.7208 12.8821 30.1937 13.7404C30.7354 14.7134 32.0771 15.803 31.2292 17.0239C30.4917 18.0239 29.0312 17.5156 28.0707 17.5781C27.7832 17.5822 27.5707 17.6614 27.5874 17.676C27.5895 17.6823 27.6228 17.651 27.6249 17.6489C27.527 18.5427 28.0374 19.6177 28.3832 20.4844C28.4916 20.7386 28.7124 21.2532 28.8291 21.5053C29.1374 22.1908 29.4583 22.8824 29.7562 23.595L28.6208 23.0345C33.8647 22.2616 38.9461 21.772 44.2568 21.2761H44.2547ZM46.2506 22.3012C40.5816 23.3825 34.6772 24.4575 28.9291 25.2555C28.4603 25.3221 28.0166 25.0825 27.7999 24.6929C26.6082 22.9825 25.6248 21.1115 25.1852 19.0302C24.6019 15.9343 26.4603 14.7467 29.3395 15.2551C29.5229 15.278 29.7 15.2967 29.802 15.2988C29.8479 15.303 29.8771 15.2926 29.8 15.3134C29.4541 15.4155 29.1749 15.7884 29.1749 16.153C29.1687 16.2239 29.1812 16.3051 29.2041 16.3676C28.9458 15.8405 28.4832 15.3217 28.2353 14.7321C27.7936 13.7884 27.5207 12.7237 27.9041 11.6341C28.7437 9.38402 31.5729 9.59861 33.3543 10.382C33.9105 10.6153 34.4814 10.9028 35.0272 11.1487C35.5189 11.432 36.144 11.7445 36.6231 12.0404L37.6503 12.6904C40.3504 14.4842 42.615 16.8322 44.6818 19.3073C45.0735 19.7594 45.4735 20.2761 45.8485 20.7449L46.0443 20.9949L46.1422 21.124L46.1672 21.1574C46.3735 21.4657 46.4006 21.9637 46.2527 22.2991L46.2506 22.3012Z" fill="black"/>
<path d="M44.2547 21.2761C44.0776 21.5303 44.0797 22.0012 44.238 22.2324L44.2359 22.2241L44.2234 22.1928C43.7047 20.8282 42.8755 19.5969 41.9483 18.4719C39.8545 16.0218 37.2044 14.0425 34.2814 12.7071C33.2084 12.2779 31.9042 11.6612 30.7875 11.7633C29.5 11.8299 29.7208 12.8821 30.1937 13.7404C30.7354 14.7134 32.0771 15.803 31.2292 17.0239C30.4917 18.0239 29.0312 17.5156 28.0707 17.5781C27.7832 17.5822 27.5707 17.6614 27.5874 17.676C27.5895 17.6823 27.6228 17.651 27.6249 17.6489C27.527 18.5427 28.0374 19.6177 28.3832 20.4844C28.4916 20.7386 28.7124 21.2532 28.8291 21.5053C29.1374 22.1908 29.4583 22.8824 29.7562 23.595L28.6208 23.0345C33.8647 22.2616 38.9461 21.772 44.2568 21.2761H44.2547ZM46.2506 22.3012C40.5816 23.3825 34.6772 24.4575 28.9291 25.2555C28.4603 25.3221 28.0166 25.0825 27.7999 24.6929C26.6082 22.9825 25.6248 21.1115 25.1852 19.0302C24.6019 15.9343 26.4603 14.7467 29.3395 15.2551C29.5229 15.278 29.7 15.2967 29.802 15.2988C29.8479 15.303 29.8771 15.2926 29.8 15.3134C29.4541 15.4155 29.1749 15.7884 29.1749 16.153C29.1687 16.2239 29.1812 16.3051 29.2041 16.3676C28.9458 15.8405 28.4832 15.3217 28.2353 14.7321C27.7936 13.7884 27.5207 12.7237 27.9041 11.6341C28.7437 9.38402 31.5729 9.59861 33.3543 10.382C33.9105 10.6153 34.4814 10.9028 35.0272 11.1487C35.5189 11.432 36.144 11.7445 36.6231 12.0404L37.6503 12.6904C40.3504 14.4842 42.615 16.8322 44.6818 19.3073C45.0735 19.7594 45.4735 20.2761 45.8485 20.7449L46.0443 20.9949L46.1422 21.124L46.1672 21.1574C46.3735 21.4657 46.4006 21.9637 46.2527 22.2991L46.2506 22.3012Z" fill="black" fill-opacity="0.2"/>
<path d="M20.6617 39.736L20.7138 38.7713C24.1327 43.1903 30.8434 47.3342 37.5707 47.3342C47.1773 47.3342 54.9651 40.8235 54.9651 32.794C54.9651 24.7646 47.1773 18.2539 37.5707 18.2539C31.0225 18.2539 23.8014 23.2541 20.3867 28.1459" fill="#FECB8B"/>
<path d="M36.9219 44.1953C38.6719 45.1391 42.4096 45.5245 45.2014 44.9245C47.7452 44.3766 42.5867 47.9496 37.1677 47.7913L36.924 44.1953H36.9219Z" fill="#FF6700"/>
<path d="M18.1056 30.1026C15.5055 24.4357 11.6491 22.4357 10.7074 24.8983C10.1282 16.0667 17.6723 24.2774 19.1577 27.6838L18.1056 30.1026Z" fill="#FECB8B"/>
<path d="M12.7109 44.15C16.5444 44.025 18.2403 38.0727 18.2257 36.1289L20.3779 39.5478C18.0049 42.7417 15.4715 44.4855 12.7109 44.15Z" fill="black"/>
<path d="M12.7109 44.15C16.5444 44.025 18.2403 38.0727 18.2257 36.1289L20.3779 39.5478C18.0049 42.7417 15.4715 44.4855 12.7109 44.15Z" fill="black" fill-opacity="0.2"/>
<path d="M19.6528 35.6316C20.4007 36.3733 18.1173 32.3835 19.3903 29.7751C25.9197 16.41 40.2744 18.3893 38.9264 18.8934C27.7698 23.0707 26.7176 35.0732 32.2678 42.6839L28.3406 44.4111C26.3739 44.6569 19.0028 38.3879 19.6507 35.6337L19.6528 35.6316Z" fill="#FF6700"/>
<path d="M21.6242 40.3152C19.645 43.3757 16.3761 46.8592 12.3739 46.3675C10.9405 46.1883 9.74044 45.3445 9.31126 43.8361C8.42581 40.6673 10.4217 35.99 11.7864 33.1295C11.7864 33.1295 11.7884 34.1566 11.7864 34.1524C10.3175 31.0523 8.02371 25.85 8.6654 22.427C9.21126 19.7394 11.8072 19.4373 13.9844 20.1977C16.3303 21.0394 18.0158 22.8583 19.4033 24.7896C20.0679 25.7334 20.6534 26.7167 21.1784 27.7293C21.6846 28.7918 20.1825 29.5731 19.5991 28.5626C18.1533 25.9792 16.2219 23.0853 13.3614 22.0541C12.5239 21.7728 11.4009 21.7395 11.0738 22.0499C10.0509 23.002 10.9259 25.9396 11.303 27.2084C11.9447 29.2231 12.8239 31.2482 13.7823 33.1274C13.9531 33.4607 13.9427 33.8399 13.7843 34.1503C12.9635 35.8233 12.2322 37.6338 11.7489 39.4318C11.4447 40.6818 10.8655 43.0507 11.9322 43.909C12.4864 44.2174 13.1781 44.2216 13.8073 44.1216C15.9073 43.7195 17.6282 41.9423 18.9262 40.2735C19.1929 39.9235 19.4762 39.5214 19.7054 39.1505C20.5158 37.9088 22.3513 39.0193 21.6221 40.3152H21.6242Z" fill="black"/>
<path d="M21.6242 40.3152C19.645 43.3757 16.3761 46.8592 12.3739 46.3675C10.9405 46.1883 9.74044 45.3445 9.31126 43.8361C8.42581 40.6673 10.4217 35.99 11.7864 33.1295C11.7864 33.1295 11.7884 34.1566 11.7864 34.1524C10.3175 31.0523 8.02371 25.85 8.6654 22.427C9.21126 19.7394 11.8072 19.4373 13.9844 20.1977C16.3303 21.0394 18.0158 22.8583 19.4033 24.7896C20.0679 25.7334 20.6534 26.7167 21.1784 27.7293C21.6846 28.7918 20.1825 29.5731 19.5991 28.5626C18.1533 25.9792 16.2219 23.0853 13.3614 22.0541C12.5239 21.7728 11.4009 21.7395 11.0738 22.0499C10.0509 23.002 10.9259 25.9396 11.303 27.2084C11.9447 29.2231 12.8239 31.2482 13.7823 33.1274C13.9531 33.4607 13.9427 33.8399 13.7843 34.1503C12.9635 35.8233 12.2322 37.6338 11.7489 39.4318C11.4447 40.6818 10.8655 43.0507 11.9322 43.909C12.4864 44.2174 13.1781 44.2216 13.8073 44.1216C15.9073 43.7195 17.6282 41.9423 18.9262 40.2735C19.1929 39.9235 19.4762 39.5214 19.7054 39.1505C20.5158 37.9088 22.3513 39.0193 21.6221 40.3152H21.6242Z" fill="black" fill-opacity="0.2"/>
<path d="M18.4975 29.3066C21.8226 23.3251 29.1417 18.2145 35.9523 17.4124C43.1568 16.7665 51.0175 20.2395 54.3489 26.8815C58.4719 35.3026 53.1467 44.18 44.8589 47.226C42.0151 48.2989 38.942 48.7052 35.9211 48.4531C30.3188 47.8552 25.0519 45.0342 21.2684 40.8987C20.9559 40.5799 20.5497 40.0424 20.2642 39.6965C19.4538 38.6548 18.7829 37.5152 18.2746 36.2735C18.1017 35.8651 18.2933 35.3943 18.7017 35.2214C19.0913 35.0568 19.5371 35.2214 19.7267 35.5922C20.5684 37.2464 21.7893 38.7444 23.2018 40.0361C27.302 43.7884 32.9522 46.4009 38.5774 46.1051C45.8694 45.8676 53.9426 40.9049 54.1593 32.9796C54.3509 24.946 46.384 19.5541 38.9733 19.2228C35.2023 18.8853 31.4897 20.2291 28.2333 22.2375C25.0561 24.2397 22.0539 26.9481 20.2788 30.2524C19.6205 31.4129 17.9079 30.5087 18.5017 29.3086L18.4975 29.3066Z" fill="black"/>
<path d="M18.4975 29.3066C21.8226 23.3251 29.1417 18.2145 35.9523 17.4124C43.1568 16.7665 51.0175 20.2395 54.3489 26.8815C58.4719 35.3026 53.1467 44.18 44.8589 47.226C42.0151 48.2989 38.942 48.7052 35.9211 48.4531C30.3188 47.8552 25.0519 45.0342 21.2684 40.8987C20.9559 40.5799 20.5497 40.0424 20.2642 39.6965C19.4538 38.6548 18.7829 37.5152 18.2746 36.2735C18.1017 35.8651 18.2933 35.3943 18.7017 35.2214C19.0913 35.0568 19.5371 35.2214 19.7267 35.5922C20.5684 37.2464 21.7893 38.7444 23.2018 40.0361C27.302 43.7884 32.9522 46.4009 38.5774 46.1051C45.8694 45.8676 53.9426 40.9049 54.1593 32.9796C54.3509 24.946 46.384 19.5541 38.9733 19.2228C35.2023 18.8853 31.4897 20.2291 28.2333 22.2375C25.0561 24.2397 22.0539 26.9481 20.2788 30.2524C19.6205 31.4129 17.9079 30.5087 18.5017 29.3086L18.4975 29.3066Z" fill="black" fill-opacity="0.2"/>
<path d="M33.9755 50.7749C36.7793 48.9028 38.0982 45.9563 36.9213 44.1936C35.7444 42.4309 32.5174 42.5195 29.7135 44.3916C26.9097 46.2637 25.5908 49.2102 26.7677 50.9729C27.9446 52.7356 31.1716 52.6469 33.9755 50.7749Z" fill="#FECB8B"/>
<path d="M37.101 45.1857C36.8906 44.7482 36.5385 43.8232 36.1114 43.5586C36.5594 45.3566 34.9155 47.99 32.2238 49.2921C29.9904 50.3714 27.8736 49.4609 27.1715 47.4587C27.2111 47.6171 26.4298 50.163 26.5006 50.3109C27.3903 52.1506 30.4841 52.4943 33.4092 51.0797C36.3364 49.6651 37.9886 47.0254 37.099 45.1857H37.101Z" fill="#FF6700"/>
<path d="M32.4916 43.4283C30.7936 44.5888 29.0873 45.9347 28.1477 47.7118C27.4268 49.1161 27.2164 50.7245 29.1665 50.9765C30.5478 51.1474 32.0082 50.6599 33.2229 49.9765C34.5062 49.2619 35.5167 48.1264 36.0542 46.7493C36.3813 45.8576 36.5209 44.8222 36.1188 43.9409C36.0021 43.72 36.0959 43.4429 36.323 43.3388C37.0272 43.0096 37.548 44.7638 37.6001 45.2472C37.8647 47.1702 37.0855 49.089 35.823 50.5244C33.5499 53.0829 28.3956 54.9788 25.8267 51.837C23.8496 48.9848 26.3038 45.3909 28.7748 43.8617C29.7998 43.195 30.9082 42.72 32.0457 42.4241C32.3437 42.3471 32.6478 42.5262 32.7249 42.8242C32.7853 43.0617 32.6853 43.3013 32.4916 43.4283Z" fill="black"/>
<path d="M32.4916 43.4283C30.7936 44.5888 29.0873 45.9347 28.1477 47.7118C27.4268 49.1161 27.2164 50.7245 29.1665 50.9765C30.5478 51.1474 32.0082 50.6599 33.2229 49.9765C34.5062 49.2619 35.5167 48.1264 36.0542 46.7493C36.3813 45.8576 36.5209 44.8222 36.1188 43.9409C36.0021 43.72 36.0959 43.4429 36.323 43.3388C37.0272 43.0096 37.548 44.7638 37.6001 45.2472C37.8647 47.1702 37.0855 49.089 35.823 50.5244C33.5499 53.0829 28.3956 54.9788 25.8267 51.837C23.8496 48.9848 26.3038 45.3909 28.7748 43.8617C29.7998 43.195 30.9082 42.72 32.0457 42.4241C32.3437 42.3471 32.6478 42.5262 32.7249 42.8242C32.7853 43.0617 32.6853 43.3013 32.4916 43.4283Z" fill="black" fill-opacity="0.2"/>
<path d="M41.4515 32.6239C42.5387 32.3163 43.0033 30.594 42.4892 28.7771C41.9751 26.9603 40.6769 25.7368 39.5897 26.0445C38.5025 26.3522 38.0379 28.0744 38.552 29.8913C39.0661 31.7081 40.3643 32.9316 41.4515 32.6239Z" fill="black"/>
<path d="M41.4515 32.6239C42.5387 32.3163 43.0033 30.594 42.4892 28.7771C41.9751 26.9603 40.6769 25.7368 39.5897 26.0445C38.5025 26.3522 38.0379 28.0744 38.552 29.8913C39.0661 31.7081 40.3643 32.9316 41.4515 32.6239Z" fill="black" fill-opacity="0.2"/>
<path d="M39.0672 30.8412C39.4924 30.7209 39.6917 30.1099 39.5125 29.4766C39.3333 28.8433 38.8434 28.4275 38.4182 28.5478C37.9931 28.6681 37.7937 29.279 37.9729 29.9123C38.1521 30.5456 38.642 30.9615 39.0672 30.8412Z" fill="white"/>
<path d="M47.2287 31.319C48.2506 31.0299 48.6874 29.4115 48.2043 27.7042C47.7212 25.997 46.5012 24.8474 45.4792 25.1366C44.4573 25.4257 44.0205 27.0442 44.5036 28.7514C44.9867 30.4586 46.2068 31.6082 47.2287 31.319Z" fill="black"/>
<path d="M47.2287 31.319C48.2506 31.0299 48.6874 29.4115 48.2043 27.7042C47.7212 25.997 46.5012 24.8474 45.4792 25.1366C44.4573 25.4257 44.0205 27.0442 44.5036 28.7514C44.9867 30.4586 46.2068 31.6082 47.2287 31.319Z" fill="black" fill-opacity="0.2"/>
<path d="M44.9864 29.6437C45.3861 29.5306 45.5735 28.956 45.4049 28.3604C45.2364 27.7647 44.7757 27.3735 44.376 27.4866C43.9764 27.5997 43.789 28.1743 43.9575 28.7699C44.1261 29.3656 44.5867 29.7568 44.9864 29.6437Z" fill="white"/>
<path d="M39.8516 36.3468C39.8516 36.3468 39.8766 40.0282 42.7892 39.7427C47.1768 39.3115 51.4541 31.0466 43.4204 35.4384C41.2912 36.603 39.8536 36.3468 39.8536 36.3468H39.8516Z" fill="black"/>
<path d="M39.8516 36.3468C39.8516 36.3468 39.8766 40.0282 42.7892 39.7427C47.1768 39.3115 51.4541 31.0466 43.4204 35.4384C41.2912 36.603 39.8536 36.3468 39.8536 36.3468H39.8516Z" fill="black" fill-opacity="0.2"/>
</svg>
