<svg width="730" height="158" viewBox="0 0 730 158" fill="none" xmlns="http://www.w3.org/2000/svg">
<path d="M445.977 100.013L462.117 57.5586H484.914L463.036 112.183C458.281 123.955 454.269 132.798 451.012 138.741C447.755 144.675 443.463 149.367 438.128 152.817C432.802 156.267 425.795 157.992 417.106 157.992C414.101 157.992 411.829 157.784 410.282 157.386V137.907C412.147 138.106 413.752 138.211 415.096 138.211C419.957 138.211 423.891 137.32 426.888 135.548C429.884 133.775 432.474 131.007 434.648 127.254L405.324 57.5586H428.907L445.977 100.013ZM616.39 55.5771C622.488 55.5772 627.794 56.7908 632.298 59.2266C636.802 61.6625 640.137 65.0083 642.312 69.2734L626.635 77.6436C624.257 74.4968 620.99 72.9229 616.863 72.9229C614.273 72.9229 612.262 73.5109 610.812 74.6768C609.363 75.8426 608.638 77.2359 608.638 78.8662C608.638 80.7902 609.643 82.1932 611.663 83.0557C613.683 83.9182 616.912 84.8088 621.357 85.7188C628.287 87.0363 633.903 89.5767 638.194 93.3301C642.486 97.0835 644.631 102.155 644.631 108.553C644.631 116.06 641.837 122.049 636.251 126.514C630.664 130.978 623.532 133.206 614.833 133.206C609.662 133.206 604.617 132.314 599.707 130.542L599.717 130.523C594.807 128.751 590.428 125.831 586.601 121.774L598.856 108.686C600.925 111.017 603.36 112.847 606.153 114.164C608.946 115.482 611.895 116.144 614.997 116.145C618.1 116.145 620.372 115.509 622.141 114.239C623.899 112.969 624.778 111.272 624.778 109.14C624.778 107.007 623.851 105.614 621.985 104.647C620.12 103.681 617.124 102.742 612.987 101.832C606.367 100.315 600.596 97.9743 595.687 94.8369C590.777 91.6901 588.312 86.5151 588.312 79.3115C588.312 74.8472 589.452 70.8186 591.724 67.2168C593.995 63.6151 597.252 60.772 601.495 58.6963C605.738 56.6205 610.706 55.5771 616.39 55.5771ZM288.278 44.7637H261.118V131.207H238.772V44.7637H211.623V24.6787H288.278V44.7637ZM315.012 131.206H293.902V57.5498H315.012V131.206ZM581.351 131.206H560.241V57.5498H581.351V131.206ZM555.31 44.7637H515.856V70.9434C522.274 67.389 529.92 65.6162 538.821 65.6162H546.118V86.0049H539.759C523.83 86.0049 515.856 92.6488 515.856 105.938V131.197H493.511V24.6787H555.31V44.7637ZM674.72 64.5547C680.306 58.7731 687.7 55.8818 696.911 55.8818C703.425 55.8819 709.196 57.2752 714.212 60.0713L714.23 60.0625C719.247 62.8491 723.123 66.7346 725.868 71.7012C728.603 76.6773 729.976 82.3557 729.976 88.7441V131.197H708.866V92.5449C708.866 87.1707 707.311 82.8575 704.208 79.6064C701.105 76.3649 696.969 74.7344 691.788 74.7344C686.608 74.7344 682.48 76.3554 679.378 79.6064C676.275 82.8575 674.72 87.1707 674.72 92.5449V131.197H653.61V24.6787H674.72V64.5547ZM370.464 55.8662C377.191 55.8663 383.009 57.3171 387.919 60.208H387.938C392.848 63.0989 396.627 67.0324 399.266 71.999C401.904 76.9751 403.219 82.5481 403.219 88.7373V131.191H382.11V92.5391C382.11 86.9563 380.534 82.596 377.374 79.4492C374.213 76.3024 370.106 74.7285 365.041 74.7285C359.977 74.7286 355.859 76.3024 352.708 79.4492C349.548 82.596 347.973 86.9565 347.973 92.5391V131.191H326.863V57.5352H347.344V65.4492C353.037 59.0608 360.741 55.8662 370.464 55.8662ZM484.928 57.5586H484.914L484.918 57.5498L484.928 57.5586ZM304.516 24.4199C307.357 24.4199 309.696 25.4149 311.765 27.4053C313.833 29.3957 314.877 31.7849 314.877 34.5811C314.877 37.3769 313.862 39.7843 311.833 41.8125C309.803 43.8409 307.367 44.8643 304.516 44.8643C301.665 44.8642 299.21 43.8502 297.142 41.8125C295.073 39.7842 294.029 37.3675 294.029 34.5811C294.029 31.7944 295.064 29.4052 297.142 27.4053C299.21 25.415 301.674 24.42 304.516 24.4199ZM570.854 24.4199C573.696 24.4199 576.035 25.415 578.104 27.4053C580.172 29.3957 581.216 31.7849 581.216 34.5811C581.216 37.3769 580.201 39.7843 578.172 41.8125C576.142 43.8409 573.706 44.8643 570.854 44.8643C568.003 44.8642 565.549 43.8503 563.48 41.8125C561.412 39.7842 560.368 37.3675 560.368 34.5811C560.368 31.7944 561.402 29.4052 563.48 27.4053C565.549 25.415 568.013 24.42 570.854 24.4199Z" fill="black"/>
<path d="M445.977 100.013L462.117 57.5586H484.914L463.036 112.183C458.281 123.955 454.269 132.798 451.012 138.741C447.755 144.675 443.463 149.367 438.128 152.817C432.802 156.267 425.795 157.992 417.106 157.992C414.101 157.992 411.829 157.784 410.282 157.386V137.907C412.147 138.106 413.752 138.211 415.096 138.211C419.957 138.211 423.891 137.32 426.888 135.548C429.884 133.775 432.474 131.007 434.648 127.254L405.324 57.5586H428.907L445.977 100.013ZM616.39 55.5771C622.488 55.5772 627.794 56.7908 632.298 59.2266C636.802 61.6625 640.137 65.0083 642.312 69.2734L626.635 77.6436C624.257 74.4968 620.99 72.9229 616.863 72.9229C614.273 72.9229 612.262 73.5109 610.812 74.6768C609.363 75.8426 608.638 77.2359 608.638 78.8662C608.638 80.7902 609.643 82.1932 611.663 83.0557C613.683 83.9182 616.912 84.8088 621.357 85.7188C628.287 87.0363 633.903 89.5767 638.194 93.3301C642.486 97.0835 644.631 102.155 644.631 108.553C644.631 116.06 641.837 122.049 636.251 126.514C630.664 130.978 623.532 133.206 614.833 133.206C609.662 133.206 604.617 132.314 599.707 130.542L599.717 130.523C594.807 128.751 590.428 125.831 586.601 121.774L598.856 108.686C600.925 111.017 603.36 112.847 606.153 114.164C608.946 115.482 611.895 116.144 614.997 116.145C618.1 116.145 620.372 115.509 622.141 114.239C623.899 112.969 624.778 111.272 624.778 109.14C624.778 107.007 623.851 105.614 621.985 104.647C620.12 103.681 617.124 102.742 612.987 101.832C606.367 100.315 600.596 97.9743 595.687 94.8369C590.777 91.6901 588.312 86.5151 588.312 79.3115C588.312 74.8472 589.452 70.8186 591.724 67.2168C593.995 63.6151 597.252 60.772 601.495 58.6963C605.738 56.6205 610.706 55.5771 616.39 55.5771ZM288.278 44.7637H261.118V131.207H238.772V44.7637H211.623V24.6787H288.278V44.7637ZM315.012 131.206H293.902V57.5498H315.012V131.206ZM581.351 131.206H560.241V57.5498H581.351V131.206ZM555.31 44.7637H515.856V70.9434C522.274 67.389 529.92 65.6162 538.821 65.6162H546.118V86.0049H539.759C523.83 86.0049 515.856 92.6488 515.856 105.938V131.197H493.511V24.6787H555.31V44.7637ZM674.72 64.5547C680.306 58.7731 687.7 55.8818 696.911 55.8818C703.425 55.8819 709.196 57.2752 714.212 60.0713L714.23 60.0625C719.247 62.8491 723.123 66.7346 725.868 71.7012C728.603 76.6773 729.976 82.3557 729.976 88.7441V131.197H708.866V92.5449C708.866 87.1707 707.311 82.8575 704.208 79.6064C701.105 76.3649 696.969 74.7344 691.788 74.7344C686.608 74.7344 682.48 76.3554 679.378 79.6064C676.275 82.8575 674.72 87.1707 674.72 92.5449V131.197H653.61V24.6787H674.72V64.5547ZM370.464 55.8662C377.191 55.8663 383.009 57.3171 387.919 60.208H387.938C392.848 63.0989 396.627 67.0324 399.266 71.999C401.904 76.9751 403.219 82.5481 403.219 88.7373V131.191H382.11V92.5391C382.11 86.9563 380.534 82.596 377.374 79.4492C374.213 76.3024 370.106 74.7285 365.041 74.7285C359.977 74.7286 355.859 76.3024 352.708 79.4492C349.548 82.596 347.973 86.9565 347.973 92.5391V131.191H326.863V57.5352H347.344V65.4492C353.037 59.0608 360.741 55.8662 370.464 55.8662ZM484.928 57.5586H484.914L484.918 57.5498L484.928 57.5586ZM304.516 24.4199C307.357 24.4199 309.696 25.4149 311.765 27.4053C313.833 29.3957 314.877 31.7849 314.877 34.5811C314.877 37.3769 313.862 39.7843 311.833 41.8125C309.803 43.8409 307.367 44.8643 304.516 44.8643C301.665 44.8642 299.21 43.8502 297.142 41.8125C295.073 39.7842 294.029 37.3675 294.029 34.5811C294.029 31.7944 295.064 29.4052 297.142 27.4053C299.21 25.415 301.674 24.42 304.516 24.4199ZM570.854 24.4199C573.696 24.4199 576.035 25.415 578.104 27.4053C580.172 29.3957 581.216 31.7849 581.216 34.5811C581.216 37.3769 580.201 39.7843 578.172 41.8125C576.142 43.8409 573.706 44.8643 570.854 44.8643C568.003 44.8642 565.549 43.8503 563.48 41.8125C561.412 39.7842 560.368 37.3675 560.368 34.5811C560.368 31.7944 561.402 29.4052 563.48 27.4053C565.549 25.415 568.013 24.42 570.854 24.4199Z" fill="black" fill-opacity="0.2"/>
<path d="M165.996 61.0148C158.326 46.0164 144.019 35.584 127.911 30.5673C121.281 23.1272 114.026 16.1674 105.603 10.6852L101.889 8.38005C100.148 7.3309 97.8957 6.22265 96.1176 5.21783C94.1437 4.346 92.0794 3.32641 90.0678 2.49891C83.6263 -0.279118 73.3951 -1.04012 70.3589 6.93932C68.9726 10.8034 69.9596 14.5789 71.5568 17.9258C71.7753 18.4356 72.0465 18.9306 72.3328 19.4109C63.8043 18.9676 58.6586 23.371 60.5421 33.168C61.1674 36.0864 62.1091 38.8866 63.2769 41.5834C55.7504 46.637 48.9322 52.7398 43.4399 59.4041C42.2495 57.424 40.9913 55.4809 39.6277 53.5821C34.6176 46.7331 28.5226 40.283 20.0317 37.2981C12.1587 34.6014 2.77133 35.6801 0.797418 45.2037C-1.39498 56.7 5.92054 73.8484 11.2169 84.9679C6.36505 95.186 0.111823 110.539 3.13296 121.134C4.68496 126.483 9.02455 129.475 14.2079 130.111C27.7993 131.751 39.04 120.957 46.2953 110.65C46.3179 110.672 46.348 110.702 46.3706 110.731C52.2848 117.063 59.201 122.523 66.7802 126.86C61.0393 133.184 57.6038 142.058 62.8701 149.513C72.0239 160.499 90.2713 154.116 98.6566 145.235C99.071 146.528 99.734 147.695 100.683 148.656C105.678 153.724 116.377 151.463 124.581 143.609C127.949 140.381 130.367 136.716 131.708 133.155C161.663 122.346 180.905 90.8786 166.003 61.0222L165.996 61.0148ZM106.311 27.1687C98.4457 18.709 84.018 12.5249 77.3128 9.96855C77.4408 8.56476 78.3826 7.51561 80.7784 7.39739C84.8166 7.03536 89.5329 9.22232 93.4129 10.7443C102.778 14.9483 111.366 20.9329 118.464 28.2843C114.44 27.5824 110.364 27.2056 106.304 27.1687H106.311ZM8.21841 53.885C8.19581 53.7372 8.17321 53.5969 8.15061 53.4491C7.94719 49.8436 8.13554 47.0655 8.64785 44.9968C8.8814 44.5683 9.14509 44.1767 9.49166 43.859C10.6745 42.7581 14.7278 42.8763 17.764 43.8738C27.0384 47.1542 33.608 55.7395 38.6332 64.081L34.934 72.4298C25.5617 52.4073 11.6916 45.2997 8.21841 53.885ZM128.145 125.707C119.774 126.564 110.342 125.486 104.639 123.158C103.825 120.949 102.454 118.614 100.811 119.368C99.9901 119.738 99.6586 120.72 100.073 121.503C100.156 121.681 100.231 121.865 100.299 122.043C100.495 128.264 94.7841 136.31 85.9844 140.484C79.6031 143.506 73.493 142.117 69.9596 137.898C70.2835 136.893 70.728 135.874 71.2479 134.876C74.6457 128.567 80.8085 123.801 86.9563 119.686C87.657 119.235 88.0186 118.378 87.8001 117.543C87.5364 116.531 86.5118 115.918 85.4796 116.11C66.6069 89.6816 70.1705 49.1638 107.63 33.6852C108.549 33.7148 109.46 33.7591 110.38 33.8404C137.178 35.0151 165.988 54.1362 165.295 82.6258C164.707 103.934 147.786 119.191 128.145 125.7V125.707Z" fill="black"/>
<path d="M165.996 61.0148C158.326 46.0164 144.019 35.584 127.911 30.5673C121.281 23.1272 114.026 16.1674 105.603 10.6852L101.889 8.38005C100.148 7.3309 97.8957 6.22265 96.1176 5.21783C94.1437 4.346 92.0794 3.32641 90.0678 2.49891C83.6263 -0.279118 73.3951 -1.04012 70.3589 6.93932C68.9726 10.8034 69.9596 14.5789 71.5568 17.9258C71.7753 18.4356 72.0465 18.9306 72.3328 19.4109C63.8043 18.9676 58.6586 23.371 60.5421 33.168C61.1674 36.0864 62.1091 38.8866 63.2769 41.5834C55.7504 46.637 48.9322 52.7398 43.4399 59.4041C42.2495 57.424 40.9913 55.4809 39.6277 53.5821C34.6176 46.7331 28.5226 40.283 20.0317 37.2981C12.1587 34.6014 2.77133 35.6801 0.797418 45.2037C-1.39498 56.7 5.92054 73.8484 11.2169 84.9679C6.36505 95.186 0.111823 110.539 3.13296 121.134C4.68496 126.483 9.02455 129.475 14.2079 130.111C27.7993 131.751 39.04 120.957 46.2953 110.65C46.3179 110.672 46.348 110.702 46.3706 110.731C52.2848 117.063 59.201 122.523 66.7802 126.86C61.0393 133.184 57.6038 142.058 62.8701 149.513C72.0239 160.499 90.2713 154.116 98.6566 145.235C99.071 146.528 99.734 147.695 100.683 148.656C105.678 153.724 116.377 151.463 124.581 143.609C127.949 140.381 130.367 136.716 131.708 133.155C161.663 122.346 180.905 90.8786 166.003 61.0222L165.996 61.0148ZM106.311 27.1687C98.4457 18.709 84.018 12.5249 77.3128 9.96855C77.4408 8.56476 78.3826 7.51561 80.7784 7.39739C84.8166 7.03536 89.5329 9.22232 93.4129 10.7443C102.778 14.9483 111.366 20.9329 118.464 28.2843C114.44 27.5824 110.364 27.2056 106.304 27.1687H106.311ZM8.21841 53.885C8.19581 53.7372 8.17321 53.5969 8.15061 53.4491C7.94719 49.8436 8.13554 47.0655 8.64785 44.9968C8.8814 44.5683 9.14509 44.1767 9.49166 43.859C10.6745 42.7581 14.7278 42.8763 17.764 43.8738C27.0384 47.1542 33.608 55.7395 38.6332 64.081L34.934 72.4298C25.5617 52.4073 11.6916 45.2997 8.21841 53.885ZM128.145 125.707C119.774 126.564 110.342 125.486 104.639 123.158C103.825 120.949 102.454 118.614 100.811 119.368C99.9901 119.738 99.6586 120.72 100.073 121.503C100.156 121.681 100.231 121.865 100.299 122.043C100.495 128.264 94.7841 136.31 85.9844 140.484C79.6031 143.506 73.493 142.117 69.9596 137.898C70.2835 136.893 70.728 135.874 71.2479 134.876C74.6457 128.567 80.8085 123.801 86.9563 119.686C87.657 119.235 88.0186 118.378 87.8001 117.543C87.5364 116.531 86.5118 115.918 85.4796 116.11C66.6069 89.6816 70.1705 49.1638 107.63 33.6852C108.549 33.7148 109.46 33.7591 110.38 33.8404C137.178 35.0151 165.988 54.1362 165.295 82.6258C164.707 103.934 147.786 119.191 128.145 125.7V125.707Z" fill="black" fill-opacity="0.2"/>
<path d="M119.338 81.3565C123.27 80.263 124.95 74.1603 123.09 67.7176C121.229 61.2749 116.535 56.938 112.61 58.0241C109.649 58.8442 107.969 62.5088 108.112 67.0231C108.195 66.9861 108.27 66.9344 108.361 66.9123C109.898 66.4837 111.668 67.9614 112.316 70.2075C112.964 72.4535 112.241 74.6183 110.704 75.0469C110.538 75.0912 110.38 75.1133 110.214 75.1133C112.489 79.5759 116.166 82.2431 119.338 81.3639V81.3565Z" fill="black"/>
<path d="M119.338 81.3565C123.27 80.263 124.95 74.1603 123.09 67.7176C121.229 61.2749 116.535 56.938 112.61 58.0241C109.649 58.8442 107.969 62.5088 108.112 67.0231C108.195 66.9861 108.27 66.9344 108.361 66.9123C109.898 66.4837 111.668 67.9614 112.316 70.2075C112.964 72.4535 112.241 74.6183 110.704 75.0469C110.538 75.0912 110.38 75.1133 110.214 75.1133C112.489 79.5759 116.166 82.2431 119.338 81.3639V81.3565Z" fill="black" fill-opacity="0.2"/>
<path d="M133.903 54.811C131.123 55.5794 129.54 59.0298 129.676 63.2707C129.751 63.2338 129.827 63.1895 129.91 63.1673C131.356 62.7683 133.021 64.1499 133.631 66.263C134.242 68.3761 133.564 70.4079 132.117 70.8069C131.966 70.8512 131.808 70.8586 131.65 70.866C133.79 75.0626 137.24 77.5746 140.231 76.7471C143.923 75.7201 145.505 69.9794 143.757 63.9283C142.009 57.8698 137.602 53.7914 133.903 54.8184V54.811Z" fill="black"/>
<path d="M133.903 54.811C131.123 55.5794 129.54 59.0298 129.676 63.2707C129.751 63.2338 129.827 63.1895 129.91 63.1673C131.356 62.7683 133.021 64.1499 133.631 66.263C134.242 68.3761 133.564 70.4079 132.117 70.8069C131.966 70.8512 131.808 70.8586 131.65 70.866C133.79 75.0626 137.24 77.5746 140.231 76.7471C143.923 75.7201 145.505 69.9794 143.757 63.9283C142.009 57.8698 137.602 53.7914 133.903 54.8184V54.811Z" fill="black" fill-opacity="0.2"/>
<path d="M126.457 91.3497C118.757 95.4798 113.559 94.571 113.559 94.571C113.559 94.571 113.649 107.626 124.182 106.614C140.048 105.085 155.515 75.775 126.464 91.3497H126.457Z" fill="black"/>
<path d="M126.457 91.3497C118.757 95.4798 113.559 94.571 113.559 94.571C113.559 94.571 113.649 107.626 124.182 106.614C140.048 105.085 155.515 75.775 126.464 91.3497H126.457Z" fill="black" fill-opacity="0.2"/>
</svg>
